HIERARCHY
ROOT RootJoint
{
    OFFSET   0.000000   0.000000   0.000000
    CHANNELS 6 Xposition Yposition Zposition Xrotation Yrotation Zrotation
    JOINT pelvis_lowerback
    {
        OFFSET   0.000000   0.093605   0.000000
        CHANNELS 3 Xrotation Yrotation Zrotation
        JOINT lowerback_torso
        {
            OFFSET   0.000000   0.100000   0.000000
            CHANNELS 3 Xrotation Yrotation Zrotation
            JOINT torso_head
            {
                OFFSET   0.000000   0.282350   0.000000
                CHANNELS 3 Xrotation Yrotation Zrotation
                End Site
                {
                    OFFSET   0.000000   0.192650   0.000000
                }
            }
            JOINT rTorso_Clavicle
            {
                OFFSET  -0.001000   0.157500   0.000000
                CHANNELS 3 Xrotation Yrotation Zrotation
                JOINT rShoulder
                {
                    OFFSET  -0.117647   0.000000   0.000000
                    CHANNELS 3 Xrotation Yrotation Zrotation
                    JOINT rElbow
                    {
                        OFFSET  -0.245000   0.000000   0.000000
                        CHANNELS 3 Xrotation Yrotation Zrotation
                        JOINT rWrist
                        {
                            OFFSET  -0.240000   0.000000   0.000000
                            CHANNELS 3 Xrotation Yrotation Zrotation
                            End Site
                            {
                                OFFSET  -0.116353  -0.002500   0.000000
                            }
                        }
                    }
                }
            }
            JOINT lTorso_Clavicle
            {
                OFFSET   0.001000   0.157500   0.000000
                CHANNELS 3 Xrotation Yrotation Zrotation
                JOINT lShoulder
                {
                    OFFSET   0.117647   0.000000   0.000000
                    CHANNELS 3 Xrotation Yrotation Zrotation
                    JOINT lElbow
                    {
                        OFFSET   0.245000   0.000000   0.000000
                        CHANNELS 3 Xrotation Yrotation Zrotation
                        JOINT lWrist
                        {
                            OFFSET   0.240000   0.000000   0.000000
                            CHANNELS 3 Xrotation Yrotation Zrotation
                            End Site
                            {
                                OFFSET   0.116353  -0.002500   0.000000
                            }
                        }
                    }
                }
            }
        }
    }
    JOINT rHip
    {
        OFFSET  -0.100000  -0.051395   0.000000
        CHANNELS 3 Xrotation Yrotation Zrotation
        JOINT rKnee
        {
            OFFSET   0.000000  -0.410000   0.000000
            CHANNELS 3 Xrotation Yrotation Zrotation
            JOINT rAnkle
            {
                OFFSET   0.000000  -0.390000   0.000000
                CHANNELS 3 Xrotation Yrotation Zrotation
                JOINT rToeJoint
                {
                    OFFSET   0.000000  -0.050000   0.130000
                    CHANNELS 3 Xrotation Yrotation Zrotation
                    End Site
                    {
                        OFFSET  -0.010000   0.002000   0.060000
                    }
                }
            }
        }
    }
    JOINT lHip
    {
        OFFSET   0.100000  -0.051395   0.000000
        CHANNELS 3 Xrotation Yrotation Zrotation
        JOINT lKnee
        {
            OFFSET   0.000000  -0.410000   0.000000
            CHANNELS 3 Xrotation Yrotation Zrotation
            JOINT lAnkle
            {
                OFFSET   0.000000  -0.390000   0.000000
                CHANNELS 3 Xrotation Yrotation Zrotation
                JOINT lToeJoint
                {
                    OFFSET   0.000000  -0.050000   0.130000
                    CHANNELS 3 Xrotation Yrotation Zrotation
                    End Site
                    {
                        OFFSET   0.010000   0.002000   0.060000
                    }
                }
            }
        }
    }
}
MOTION
Frames: 14
Frame Time:   0.008333
 -2.463818   0.956309   5.130952  -1.772901  -3.925312  -1.913055   6.589912   2.479975   0.453923   7.774964   0.169751   2.719517   0.485811  -4.965618   4.383498   2.313912   6.842925  13.617023 -10.838097  -0.767297   5.473396  -0.003969  56.802650   0.003294  14.692039   2.617981 -22.997034   8.101207  -6.543070 -18.621278  22.088054  -1.989990 -25.593449  -0.000009 -29.807463   0.000138  10.750597  -3.936716   9.503086  -1.396389   2.899479  10.274253   4.151680   0.000133   0.001282  27.121318  -3.608969  -6.807350 -43.224706   0.000678   0.000232 -20.047780  -4.550896   7.798201  72.722743  -0.003062  -0.001458 -12.908270  -0.274028  -2.558150  -7.063230  -0.002323  -0.001087
 -2.464039   0.957306   5.133646  -1.822936  -4.514321  -1.747168   6.653048   2.629435   0.453840   7.815584   0.347804   2.593517   0.512476  -4.958822   4.397340   2.271200   7.071400  13.604919 -10.813790  -0.566796   5.403339  -0.004050  56.083091   0.002997  14.720067   2.680749 -22.860231   8.091180  -6.393188 -18.651790  22.209664  -1.914510 -25.702875   0.000013 -29.872566   0.000188  10.738145  -3.923928   9.395007  -1.196806   3.043977  10.078100   4.112763   0.000106   0.001186  27.507482  -3.200103  -6.922694 -43.863421   0.001020   0.000317 -20.650250  -4.795361   7.461836  72.149401   0.000712   0.001544 -13.198743  -0.216952  -2.450284  -6.954906  -0.002356  -0.001571
 -2.464212   0.958320   5.136260  -1.861911  -5.111464  -1.588526   6.719350   2.774179   0.462059   7.857115   0.526359   2.470271   0.537063  -4.952752   4.409773   2.228272   7.292369  13.577738 -10.792549  -0.377127   5.331194  -0.003987  55.400671   0.002724  14.720861   2.676978 -22.697026   8.090032  -6.243821 -18.680417  22.327816  -1.842113 -25.816972   0.000034 -29.936370   0.000240  10.727804  -3.936985   9.268046  -1.024851   3.195161   9.881758   4.086215   0.000083   0.001057  27.917261  -2.785780  -7.020866 -44.529856   0.001408   0.000422 -21.232297  -5.052826   7.120219  71.458488   0.004415   0.004746 -13.474717  -0.164244  -2.348186  -6.845849  -0.002376  -0.002002
 -2.464371   0.959293   5.138833  -1.904983  -5.696821  -1.442496   6.792765   2.911102   0.475656   7.904227   0.697040   2.356523   0.561616  -4.947222   4.422371   2.187060   7.498129  13.542765 -10.774237  -0.199634   5.258078  -0.003796  54.763068   0.002434  14.715196   2.657744 -22.539153   8.093749  -6.099076 -18.705383  22.440999  -1.771003 -25.926391   0.000045 -29.995227   0.000280  10.717256  -3.952925   9.134421  -0.856317   3.349207   9.694395   4.069416   0.000065   0.000912  28.314412  -2.384723  -7.114680 -45.182925   0.001714   0.000512 -21.803392  -5.301413   6.791873  70.765068   0.007209   0.007347 -13.734115  -0.115430  -2.252502  -6.744451  -0.002330  -0.002286
 -2.464546   0.960314   5.141344  -1.944236  -6.277321  -1.324345   6.867890   3.044186   0.501057   7.954607   0.861997   2.257527   0.585238  -4.941868   4.435800   2.147666   7.691591  13.510461 -10.757916  -0.033250   5.188849  -0.003605  54.167501   0.002161  14.708276   2.635195 -22.391412   8.099357  -5.961098 -18.732638  22.547916  -1.702698 -26.030786   0.000051 -30.048455   0.000310  10.705584  -3.960106   9.002238  -0.672809   3.503639   9.539927   4.038044   0.000052   0.000853  28.569257  -2.011019  -7.219284 -45.146340   0.001345   0.000391 -22.367824  -5.538366   6.495419  70.093272   0.009145   0.009320 -13.977019  -0.070181  -2.163077  -6.650702  -0.002234  -0.002450
 -2.464713   0.961327   5.143807  -1.983785  -6.860233  -1.212390   6.945254   3.174536   0.520801   8.007725   1.021485   2.164264   0.608469  -4.936693   4.448522   2.111004   7.873463  13.478865 -10.742504   0.123157   5.124103  -0.003374  53.612529   0.001886  14.702572   2.616035 -22.249985   8.107737  -5.828369 -18.755434  22.649594  -1.636017 -26.129139   0.000052 -30.097274   0.000333  10.693428  -3.962883   8.871173  -0.491024   3.650689   9.390920   4.002483   0.000042   0.000824  28.833755  -1.655026  -7.308535 -45.117073   0.001054   0.000290 -22.917430  -5.755512   6.206891  69.457633   0.010370   0.010752 -14.204392  -0.028333  -2.079688  -6.566054  -0.002099  -0.002516
 -2.464876   0.962315   5.146241  -2.025843  -7.443324  -1.107461   7.022727   3.300320   0.537001   8.062959   1.174343   2.076097   0.631265  -4.931761   4.460147   2.077039   8.043714  13.448459 -10.727986   0.269692   5.063397  -0.003093  53.095151   0.001584  14.698447   2.600857 -22.114383   8.118362  -5.700930 -18.774549  22.746183  -1.570825 -26.221259   0.000047 -30.141715   0.000346  10.680832  -3.960297   8.742786  -0.311894   3.788452   9.249275   3.974036   0.000035   0.000775  29.094411  -1.319755  -7.387869 -45.093659   0.000827   0.000208 -23.445501  -5.954427   5.928277  68.861996   0.011031   0.011705 -14.417025   0.010311  -2.001942  -6.489778  -0.001940  -0.002509
 -2.464911   0.963088   5.148741  -2.041326  -8.010658  -0.952083   7.061052   3.430474   0.541958   8.098494   1.304778   1.991243   0.645167  -4.887656   4.388580   2.034462   8.214773  13.448025 -10.725249   0.439025   4.957884  -0.002628  52.466435   0.000857  14.722754   2.627286 -22.019457   8.104501  -5.569309 -18.813609  22.870002  -1.545087 -26.338057   0.000033 -30.101380   0.000211  10.675906  -3.975341   8.669470  -0.175658   3.913566   9.041210   4.042058   0.000036   0.000347  29.130842  -0.944909  -7.432103 -45.074927   0.000644   0.000146 -23.874559  -6.138031   5.602942  67.721307   0.013933   0.015548 -14.515834   0.038891  -1.957992  -6.406267  -0.001801  -0.002574
 -2.464935   0.963629   5.151238  -2.048882  -8.537100  -0.827736   7.089896   3.549141   0.589201   8.119300   1.425501   1.925627   0.653557  -4.845428   4.318324   1.991913   8.373268  13.442495 -10.725299   0.593782   4.854256  -0.002200  51.870388   0.000124  14.726134   2.601372 -21.928799   8.090702  -5.448072 -18.863928  22.985347  -1.525902 -26.457390   0.000029 -30.063743   0.000116  10.669092  -3.981991   8.588282  -0.035097   4.032995   8.867093   4.102514   0.000034   0.000054  29.085823  -0.603060  -7.492721 -45.059942   0.000505   0.000102 -24.300540  -6.324922   5.320828  66.486792   0.016138   0.018850 -14.611294   0.065561  -1.916553  -6.308759  -0.001703  -0.002686
 -2.464965   0.963993   5.153715  -2.058819  -9.041733  -0.731889   7.118394   3.662995   0.659215   8.136522   1.541894   1.880115   0.659952  -4.805719   4.255860   1.950856   8.523472  13.438927 -10.725912   0.738815   4.757768  -0.001903  51.312618  -0.000481  14.722932   2.560817 -21.843834   8.076537  -5.336152 -18.919639  23.092187  -1.511195 -26.573560   0.000030 -30.029302   0.000049  10.662189  -3.989484   8.504925   0.118533   4.149622   8.724091   4.150224   0.000030  -0.000126  28.987824  -0.288633  -7.561713 -45.047954   0.000398   0.000069 -24.728750  -6.505466   5.075123  65.273902   0.017347   0.021193 -14.701976   0.090679  -1.877768  -6.215100  -0.001588  -0.002723
 -2.465005   0.964232   5.156166  -2.073308  -9.537021  -0.658162   7.148676   3.774707   0.740539   8.154611   1.656454   1.849784   0.665627  -4.768405   4.199972   1.912033   8.668268  13.441417 -10.725814   0.876298   4.671311  -0.001739  50.792099  -0.000937  14.719231   2.520605 -21.760015   8.062458  -5.232350 -18.977621  23.191320  -1.499448 -26.684816   0.000034 -29.997387  -0.000000  10.655392  -3.997307   8.422255   0.283112   4.263294   8.605361   4.188514   0.000024  -0.000235  28.856518   0.003185  -7.633762 -45.038363   0.000314   0.000045 -25.154970  -6.676251   4.855009  64.116150   0.017750   0.022712 -14.787361   0.114232  -1.841577  -6.128237  -0.001457  -0.002696
 -2.465055   0.964386   5.158588  -2.091873 -10.029606  -0.601782   7.180783   3.884916   0.827018   8.174818   1.769803   1.830534   0.670972  -4.733392   4.149260   1.875881   8.808555  13.451068 -10.724442   1.007052   4.595630  -0.001667  50.306826  -0.001264  14.717136   2.485923 -21.673735   8.048949  -5.135577 -19.036167  23.283542  -1.489695 -26.790769   0.000038 -29.967611  -0.000038  10.648646  -4.004590   8.340909   0.454678   4.373056   8.505876   4.220739   0.000018  -0.000301  28.706289   0.275320  -7.705428 -45.030690   0.000249   0.000026 -25.574589  -6.836189   4.652965  63.022960   0.017573   0.023591 -14.867494   0.136249  -1.807839  -6.048710  -0.001317  -0.002620
 -2.465114   0.964483   5.160984  -2.113324 -10.522721  -0.559317   7.214078   3.993343   0.915158   8.197131   1.881624   1.819479   0.676095  -4.700584   4.102783   1.842557   8.944241  13.467426 -10.721704   1.131308   4.530225  -0.001644  49.854561  -0.001491  14.717202   2.458113 -21.583547   8.036337  -5.044970 -19.094214  23.369528  -1.481305 -26.891416   0.000043 -29.939731  -0.000066  10.641907  -4.010965   8.260902   0.629665   4.478120   8.422011   4.249355   0.000012  -0.000342  28.547046   0.529819  -7.774609 -45.024552   0.000198   0.000012 -25.983858  -6.984954   4.464135  61.995893   0.016994   0.023978 -14.942588   0.156788  -1.776406  -5.976328  -0.001174  -0.002513
 -2.465117   0.964805   5.163322  -2.109686 -11.050695  -0.467035   7.231482   4.129053   0.956605   8.231591   1.963754   1.797571   0.661144  -4.613428   4.040340   1.805565   9.060647  13.496574 -10.693610   1.306867   4.518355  -0.001983  49.380882  -0.001538  14.715762   2.451505 -21.505094   8.005368  -4.937061 -19.125354  23.467593  -1.549864 -27.046492   0.000030 -29.822086  -0.000263  10.633985  -4.000364   8.191162   0.757951   4.601516   8.274131   4.299314   0.000013  -0.000457  28.446779   0.840495  -7.812417 -45.019642   0.000156   0.000003 -26.261021  -7.063950   4.243963  60.447244   0.017582   0.027269 -14.903037   0.242550  -1.751348  -5.910676  -0.001029  -0.002364
